# This file uses centimeters as units for non-parametric coordinates.

mtllib box.mtl
g default
v -3.050796 0.750170 3.050796
v 3.050796 0.750170 3.050796
v -3.050796 0.750170 -3.050796
v 3.050796 0.750170 -3.050796
v 3.050796 0.750170 -2.620697
v -3.050796 0.750170 -2.620697
v 3.050796 0.750170 2.564917
v -3.050796 0.750170 2.564917
v -2.593973 0.750170 3.050796
v -2.593973 0.750170 2.564917
v -2.593973 0.750170 -2.620697
v -2.593973 0.750170 -3.050796
v 2.659585 0.750170 3.050796
v 2.659585 0.750170 2.564917
v 2.659585 0.750170 -2.620697
v 2.659585 0.750170 -3.050796
v -3.050796 1.627135 3.050796
v -2.593973 1.627135 3.050796
v -2.593973 1.627135 2.564917
v -3.050796 1.627135 2.564917
v -2.593973 1.627135 -2.620697
v -3.050796 1.627135 -2.620697
v -2.593973 1.627135 -3.050796
v -3.050796 1.627135 -3.050796
v 2.659585 1.627135 3.050796
v 2.659585 1.627135 2.564917
v 2.659585 1.627135 -2.620697
v 2.659585 1.627135 -3.050796
v 3.050796 1.627135 3.050796
v 3.050796 1.627135 2.564917
v 3.050796 1.627135 -2.620697
v 3.050796 1.627135 -3.050796
vt 0.000000 0.000000
vt 1.000000 0.000000
vt 0.000000 1.000000
vt 1.000000 1.000000
vt 1.000000 0.929510
vt 0.000000 0.929510
vt 1.000000 0.079632
vt 0.000000 0.079632
vt 0.074870 0.000000
vt 0.074870 0.079632
vt 0.074870 0.929510
vt 0.074870 1.000000
vt 0.937922 0.000000
vt 0.937922 0.079632
vt 0.937922 0.929510
vt 0.937922 1.000000
vt 0.000000 0.000000
vt 0.074870 0.000000
vt 0.000000 0.079632
vt 0.074870 1.000000
vt 0.000000 1.000000
vt 0.000000 0.929510
vt 0.074870 0.079632
vt 0.074870 0.929510
vt 0.937922 0.000000
vt 0.937922 0.079632
vt 0.937922 0.929510
vt 0.937922 1.000000
vt 1.000000 0.000000
vt 1.000000 0.079632
vt 1.000000 0.929510
vt 1.000000 1.000000
vn 0.000000 1.000000 0.000000
vn 0.000000 1.000000 -0.000000
vn 0.000000 1.000000 -0.000000
vn 0.000000 1.000000 -0.000000
vn 0.000000 1.000000 -0.000000
vn 0.000000 1.000000 -0.000000
vn 0.000000 1.000000 0.000000
vn 0.000000 1.000000 0.000000
vn 0.000000 1.000000 -0.000000
vn 0.000000 1.000000 -0.000000
vn 0.000000 1.000000 0.000000
vn 0.000000 1.000000 0.000000
vn 0.000000 1.000000 0.000000
vn 0.000000 1.000000 0.000000
vn 0.000000 1.000000 0.000000
vn 0.000000 1.000000 0.000000
vn 0.000000 1.000000 0.000000
vn 0.000000 1.000000 0.000000
vn 0.000000 1.000000 0.000000
vn 0.000000 1.000000 0.000000
vn 0.000000 0.000000 1.000000
vn 0.000000 0.000000 1.000000
vn 0.000000 0.000000 1.000000
vn 0.000000 0.000000 1.000000
vn -1.000000 0.000000 0.000000
vn -1.000000 0.000000 0.000000
vn -1.000000 0.000000 0.000000
vn -1.000000 0.000000 0.000000
vn 0.000000 0.000000 -1.000000
vn 0.000000 0.000000 -1.000000
vn 0.000000 0.000000 -1.000000
vn 0.000000 0.000000 -1.000000
vn -1.000000 0.000000 0.000000
vn -1.000000 0.000000 0.000000
vn -1.000000 0.000000 0.000000
vn -1.000000 0.000000 0.000000
vn 1.000000 0.000000 0.000000
vn 1.000000 0.000000 0.000000
vn 1.000000 0.000000 0.000000
vn 1.000000 0.000000 0.000000
vn 0.000000 0.000000 1.000000
vn 0.000000 0.000000 1.000000
vn 0.000000 0.000000 -1.000000
vn 0.000000 0.000000 -1.000000
vn 0.000000 0.000000 -1.000000
vn 0.000000 0.000000 -1.000000
vn 0.000000 0.000000 1.000000
vn 0.000000 0.000000 1.000000
vn 0.000000 0.000000 1.000000
vn 0.000000 0.000000 1.000000
vn 0.000000 0.000000 -1.000000
vn 0.000000 0.000000 -1.000000
vn 0.000000 0.000000 1.000000
vn 0.000000 0.000000 1.000000
vn 1.000000 0.000000 0.000000
vn 1.000000 0.000000 0.000000
vn 1.000000 0.000000 0.000000
vn 1.000000 0.000000 0.000000
vn -1.000000 0.000000 0.000000
vn -1.000000 0.000000 0.000000
vn -1.000000 0.000000 0.000000
vn -1.000000 0.000000 0.000000
vn 1.000000 0.000000 0.000000
vn 1.000000 0.000000 0.000000
vn 1.000000 0.000000 0.000000
vn 1.000000 0.000000 0.000000
vn 0.000000 0.000000 -1.000000
vn 0.000000 0.000000 -1.000000
s 1
g pPlane1
usemtl initialShadingGroup
f 17/17/1 18/18/2 19/23/3 20/19/4
f 22/22/5 21/24/6 23/20/7 24/21/8
f 20/19/4 19/23/3 21/24/6 22/22/5
f 18/18/2 25/25/9 26/26/10 19/23/3
s off
f 11/11/11 10/10/12 14/14/13 15/15/14
s 1
f 23/20/7 21/24/6 27/27/15 28/28/16
f 25/25/9 29/29/17 30/30/18 26/26/10
f 27/27/15 26/26/10 30/30/18 31/31/19
f 28/28/16 27/27/15 31/31/19 32/32/20
s 2
f 1/1/21 9/9/22 18/18/23 17/17/24
s 3
f 8/8/25 1/1/26 17/17/27 20/19/28
s 4
f 12/12/29 3/3/30 24/21/31 23/20/32
s 3
f 3/3/33 6/6/34 22/22/35 24/21/36
s off
f 10/10/37 11/11/38 21/24/39 19/23/40
s 3
f 6/6/34 8/8/25 20/19/28 22/22/35
s 2
f 9/9/22 13/13/41 25/25/42 18/18/23
s off
f 14/14/43 10/10/44 19/23/45 26/26/46
f 11/11/47 15/15/48 27/27/49 21/24/50
s 4
f 16/16/51 12/12/29 23/20/32 28/28/52
s 2
f 13/13/41 2/2/53 29/29/54 25/25/42
s 5
f 2/2/55 7/7/56 30/30/57 29/29/58
s off
f 15/15/59 14/14/60 26/26/61 27/27/62
s 5
f 7/7/56 5/5/63 31/31/64 30/30/57
f 5/5/63 4/4/65 32/32/66 31/31/64
s 4
f 4/4/67 16/16/51 28/28/52 32/32/68
