# WaveFront *.obj file (generated by CINEMA 4D)

mtllib ./box.mtl

v -3.0507960319519 0.7501699924469 3.0507960319519
v 3.0507960319519 0.7501699924469 3.0507960319519
v -3.0507960319519 0.7501699924469 -3.0507960319519
v 3.0507960319519 0.7501699924469 -3.0507960319519
v 3.0507960319519 0.7501699924469 -2.62069702148438
v -3.0507960319519 0.7501699924469 -2.62069702148438
v 3.0507960319519 0.7501699924469 2.56491708755493
v -3.0507960319519 0.7501699924469 2.56491708755493
v -2.59397292137146 0.7501699924469 3.0507960319519
v -2.59397292137146 0.7501699924469 2.56491708755493
v -2.59397292137146 0.7501699924469 -2.62069702148438
v -2.59397292137146 0.7501699924469 -3.0507960319519
v 2.65958499908447 0.7501699924469 3.0507960319519
v 2.65958499908447 0.7501699924469 2.56491708755493
v 2.65958499908447 0.7501699924469 -2.62069702148438
v 2.65958499908447 0.7501699924469 -3.0507960319519
v -3.0507960319519 1.62713503837585 3.0507960319519
v -2.59397292137146 1.62713503837585 3.0507960319519
v -2.59397292137146 1.62713503837585 2.56491708755493
v -3.0507960319519 1.62713503837585 2.56491708755493
v -2.59397292137146 1.62713503837585 -2.62069702148438
v -3.0507960319519 1.62713503837585 -2.62069702148438
v -2.59397292137146 1.62713503837585 -3.0507960319519
v -3.0507960319519 1.62713503837585 -3.0507960319519
v 2.65958499908447 1.62713503837585 3.0507960319519
v 2.65958499908447 1.62713503837585 2.56491708755493
v 2.65958499908447 1.62713503837585 -2.62069702148438
v 2.65958499908447 1.62713503837585 -3.0507960319519
v 3.0507960319519 1.62713503837585 3.0507960319519
v 3.0507960319519 1.62713503837585 2.56491708755493
v 3.0507960319519 1.62713503837585 -2.62069702148438
v 3.0507960319519 1.62713503837585 -3.0507960319519
# 32 vertices

vn 0 1 0
vn 0 0 1
vn -1 0 0
vn 0 0 -1
vn 1 0 0
# 5 normals

vt 0.00867699552327 0.51177090406418 0
vt 0.04751114547253 0.51177090406418 0
vt 0.04751114547253 0.47028279304504 0
vt 0.00867699552327 0.47028279304504 0
vt 0.00867699552327 0.99128437042236 0
vt 0.04751114547253 0.99128437042236 0
vt 0.04751114547253 0.95455914735794 0
vt 0.00867699552327 0.95455914735794 0
vt 0.49411180615425 0.51177090406418 0
vt 0.49411180615425 0.47028279304504 0
vt 0.45527765154839 0.45285141468048 0
vt 0.45527765154839 0.01006317138672 0
vt 0.00867699552327 0.01006317138672 0
vt 0.00867699552327 0.45285141468048 0
vt 0.49411180615425 0.99128437042236 0
vt 0.49411180615425 0.95455914735794 0
vt 0.52736836671829 0.51177090406418 0
vt 0.52736836671829 0.47028279304504 0
vt 0.52736836671829 0.95455914735794 0
vt 0.52736836671829 0.99128437042236 0
vt 0.47263166308403 0.45285141468048 0
vt 0.51146578788757 0.45285141468048 0
vt 0.51146578788757 0.37796938419342 0
vt 0.47263166308403 0.37796938419342 0
vt 0.95001882314682 0.26822459697723 0
vt 0.99132299423218 0.26822459697723 0
vt 0.99132299423218 0.19334244728088 0
vt 0.95001882314682 0.19334244728088 0
vt 0.95248883962631 0.36053800582886 0
vt 0.99132299423218 0.36053800582886 0
vt 0.99132299423218 0.2856559753418 0
vt 0.95248883962631 0.2856559753418 0
vt 0.47263166308403 0.26822459697723 0
vt 0.5091940164566 0.26822459697723 0
vt 0.5091940164566 0.19334244728088 0
vt 0.47263166308403 0.19334244728088 0
vt 0.54472231864929 0.80665755271912 0
vt 0.98554712533951 0.80665755271912 0
vt 0.98554712533951 0.73177540302277 0
vt 0.54472231864929 0.73177540302277 0
vt 0.95806646347046 0.45285141468048 0
vt 0.95806646347046 0.37796938419342 0
vt 0.54472231864929 0.99128437042236 0
vt 0.99132299423218 0.99128437042236 0
vt 0.99132299423218 0.91640222072601 0
vt 0.54472231864929 0.91640222072601 0
vt 0.47263166308403 0.08359777927399 0
vt 0.91923230886459 0.08359777927399 0
vt 0.91923230886459 0.00871562957764 0
vt 0.47263166308403 0.00871562957764 0
vt 0.50588816404343 0.36053800582886 0
vt 0.50588816404343 0.2856559753418 0
vt 0.99132299423218 0.45285141468048 0
vt 0.99132299423218 0.37796938419342 0
vt 0.47263166308403 0.17591118812561 0
vt 0.51393580436707 0.17591118812561 0
vt 0.51393580436707 0.10102903842926 0
vt 0.47263166308403 0.10102903842926 0
vt 0.54472231864929 0.89897096157074 0
vt 0.98554712533951 0.89897096157074 0
vt 0.98554712533951 0.82408881187439 0
vt 0.54472231864929 0.82408881187439 0
vt 0.95476061105728 0.17591118812561 0
vt 0.95476061105728 0.10102903842926 0
vt 0.99132299423218 0.17591118812561 0
vt 0.99132299423218 0.10102903842926 0
vt 0.47263166308403 0.36053800582886 0
vt 0.47263166308403 0.2856559753418 0
# 68 texture coordinates

o pPlane1
usemtl initialShadingGroup
f 17/4/1 18/3/1 19/2/1 20/1/1
f 22/8/1 21/7/1 23/6/1 24/5/1
f 20/1/1 19/2/1 21/7/1 22/8/1
f 18/3/1 25/10/1 26/9/1 19/2/1
f 11/14/1 10/13/1 14/12/1 15/11/1
f 23/6/1 21/7/1 27/16/1 28/15/1
f 25/10/1 29/18/1 30/17/1 26/9/1
f 27/16/1 26/9/1 30/17/1 31/19/1
f 28/15/1 27/16/1 31/19/1 32/20/1
f 1/24/2 9/23/2 18/22/2 17/21/2
f 8/28/3 1/27/3 17/26/3 20/25/3
f 12/32/4 3/31/4 24/30/4 23/29/4
f 3/36/3 6/35/3 22/34/3 24/33/3
f 10/40/5 11/39/5 21/38/5 19/37/5
f 6/35/3 8/28/3 20/25/3 22/34/3
f 9/23/2 13/42/2 25/41/2 18/22/2
f 14/46/4 10/45/4 19/44/4 26/43/4
f 11/50/2 15/49/2 27/48/2 21/47/2
f 16/52/4 12/32/4 23/29/4 28/51/4
f 13/42/2 2/54/2 29/53/2 25/41/2
f 2/58/5 7/57/5 30/56/5 29/55/5
f 15/62/3 14/61/3 26/60/3 27/59/3
f 7/57/5 5/64/5 31/63/5 30/56/5
f 5/64/5 4/66/5 32/65/5 31/63/5
f 4/68/4 16/52/4 28/51/4 32/67/4

